<?xml version="1.0" encoding="UTF-8" standalone="no"?>
<!-- Created with Inkscape (http://www.inkscape.org/) -->

<svg
   width="18.449659mm"
   height="22.45093mm"
   viewBox="0 0 18.449659 22.450929"
   version="1.1"
   id="svg1"
   xml:space="preserve"
   inkscape:version="1.4.2 (f4327f4, 2025-05-13)"
   sodipodi:docname="logo_zagreb.svg"
   xmlns:inkscape="http://www.inkscape.org/namespaces/inkscape"
   xmlns:sodipodi="http://sodipodi.sourceforge.net/DTD/sodipodi-0.dtd"
   xmlns="http://www.w3.org/2000/svg"
   xmlns:svg="http://www.w3.org/2000/svg"><sodipodi:namedview
     id="namedview1"
     pagecolor="#ffffff"
     bordercolor="#000000"
     borderopacity="0.25"
     inkscape:showpageshadow="2"
     inkscape:pageopacity="0.0"
     inkscape:pagecheckerboard="true"
     inkscape:deskcolor="#d1d1d1"
     inkscape:document-units="mm"
     inkscape:zoom="5.7941077"
     inkscape:cx="111.23369"
     inkscape:cy="62.563559"
     inkscape:window-width="2880"
     inkscape:window-height="1514"
     inkscape:window-x="-2"
     inkscape:window-y="-11"
     inkscape:window-maximized="1"
     inkscape:current-layer="layer1" /><defs
     id="defs1" /><g
     inkscape:label="Layer 1"
     inkscape:groupmode="layer"
     id="layer1"
     transform="translate(-29.882351,-61.857205)"><g
       id="g1"><path
         id="Path_757"
         data-name="Path 757"
         d="m 39.107049,84.082999 a 9.3511686,9.3511686 0 0 1 -6.360054,-2.434167 7.9980895,7.9980895 0 0 1 -2.639748,-5.888831 v -13.6779 h 17.999868 v 13.677371 a 7.9970311,7.9970311 0 0 1 -2.639747,5.888831 9.3514332,9.3514332 0 0 1 -6.360319,2.434696 z"
         fill="#2b2a29"
         style="stroke-width:0.264583" /><path
         id="Path_758"
         data-name="Path 758"
         d="m 39.107049,84.082999 a 9.3511686,9.3511686 0 0 1 -6.360054,-2.434167 7.9980895,7.9980895 0 0 1 -2.639748,-5.888831 v -13.6779 h 17.999868 v 13.677371 a 7.9970311,7.9970311 0 0 1 -2.639747,5.888831 9.3514332,9.3514332 0 0 1 -6.360319,2.434696 z"
         fill="none"
         stroke="#fefefe"
         stroke-miterlimit="22.926"
         stroke-width="0.449792" /><path
         id="Path_759"
         data-name="Path 759"
         d="m 46.176186,80.543668 -0.10795,-0.059 a 14.126898,14.126898 0 0 0 -13.939837,0.01005 c -0.0056,0.0053 -0.07726,0.04207 -0.09022,0.04895 a 8.8370832,8.8370832 0 0 0 3.069167,2.402946 9.3104228,9.3104228 0 0 0 7.999941,0 8.8302041,8.8302041 0 0 0 3.069167,-2.402946"
         fill="#61a375"
         style="stroke-width:0.264583" /><path
         id="Path_760"
         data-name="Path 760"
         d="m 32.325249,62.741972 0.39079,0.990865 1.05701,-0.15875 a 0.07064375,0.07064375 0 0 1 0.06191,0.118269 l -0.661458,0.82841 0.665692,0.832908 a 0.07064375,0.07064375 0 0 1 -0.06509,0.113771 l -1.058333,-0.15875 -0.39079,0.990865 a 0.07064375,0.07064375 0 0 1 -0.132291,0 l -0.39079,-0.990865 -1.05701,0.15875 a 0.07064375,0.07064375 0 0 1 -0.06165,-0.118533 l 0.661458,-0.828411 -0.665956,-0.832908 a 0.07037917,0.07037917 0 0 1 0.01111,-0.09895 0.0714375,0.0714375 0 0 1 0.05292,-0.01455 l 1.05701,0.15875 0.39079,-0.990865 a 0.07037917,0.07037917 0 0 1 0.132292,0 m 15.041033,1.664759 a 1.6906875,1.6906875 0 0 1 -0.151871,0.714375 1.4853708,1.4853708 0 0 1 -0.5588,0.638439 1.5785041,1.5785041 0 0 1 -0.846667,0.238125 2.0372916,2.0372916 0 0 1 -0.855927,-0.199496 0.07064375,0.07064375 0 0 1 0.01111,-0.132291 c 0.608541,-0.164836 0.93001,-0.376767 1.098021,-0.599546 a 1.2832292,1.2832292 0 0 0 0,-1.316831 C 45.891759,63.526991 45.57082,63.31506 44.961749,63.150224 a 0.07064375,0.07064375 0 0 1 -0.0087,-0.133614 2.0372916,2.0372916 0 0 1 0.853545,-0.198173 1.5803562,1.5803562 0 0 1 0.846667,0.236802 1.4866937,1.4866937 0 0 1 0.558535,0.638439 1.6898937,1.6898937 0 0 1 0.154517,0.713053 z M 46.34234,80.325922 a 7.6268791,7.6268791 0 0 0 1.529027,-4.566444 V 62.315464 H 30.340874 v 13.444008 a 7.6284666,7.6284666 0 0 0 1.528762,4.566444 l 1.11125,-2.328334 0.314325,-5.973497 -0.755385,-0.729721 a 0.07011458,0.07011458 0 0 1 -0.02143,-0.05292 l -0.0058,-1.078177 a 0.07011458,0.07011458 0 0 1 0.07012,-0.07064 h 0.64082 a 0.07090833,0.07090833 0 0 1 0.07091,0.07064 l 0.0019,0.582083 h 0.505883 l 0.186796,-3.553618 -0.333111,-0.394229 a 0.07170208,0.07170208 0 0 1 -0.01667,-0.04577 v -0.855134 a 0.07090833,0.07090833 0 0 1 0.07091,-0.07064 h 0.567002 a 0.07090833,0.07090833 0 0 1 0.07091,0.07064 v 0.550863 h 0.425715 v -0.550863 a 0.07090833,0.07090833 0 0 1 0.07064,-0.07064 h 0.567266 a 0.07090833,0.07090833 0 0 1 0.07064,0.07064 v 0.550863 h 0.42545 v -0.550863 a 0.07090833,0.07090833 0 0 1 0.07091,-0.07064 h 0.567795 a 0.07090833,0.07090833 0 0 1 0.07091,0.07064 v 0.855134 a 0.07011458,0.07011458 0 0 1 -0.01667,0.04551 l -0.334698,0.394494 0.188383,3.553618 h 0.595313 l 0.423333,-5.249862 -0.494506,-0.482071 a 0.07064375,0.07064375 0 0 1 -0.02117,-0.05292 l 0.0037,-1.134533 a 0.07064375,0.07064375 0 0 1 0.07038,-0.07064 h 0.592931 a 0.07090833,0.07090833 0 0 1 0.07091,0.07091 v 0.606689 h 0.449792 v -0.608541 a 0.07090833,0.07090833 0 0 1 0.07091,-0.07091 h 0.592667 a 0.07090833,0.07090833 0 0 1 0.07091,0.07091 v 0.608541 h 0.451379 v -0.608541 a 0.07090833,0.07090833 0 0 1 0.07064,-0.07091 h 0.592667 a 0.07090833,0.07090833 0 0 1 0.07091,0.07091 v 0.608541 h 0.451379 v -0.608541 a 0.07090833,0.07090833 0 0 1 0.07064,-0.07091 h 0.592931 a 0.07090833,0.07090833 0 0 1 0.07064,0.07091 l 0.0034,1.137708 a 0.06958542,0.06958542 0 0 1 -0.02117,0.05053 l -0.494242,0.482071 0.423334,5.249863 H 41.75872 L 41.94578,67.19094 41.61267,66.796711 A 0.07170208,0.07170208 0 0 1 41.596,66.750941 v -0.855133 a 0.07090833,0.07090833 0 0 1 0.07091,-0.07064 h 0.567002 a 0.07090833,0.07090833 0 0 1 0.07091,0.07064 v 0.550862 h 0.42545 v -0.550862 a 0.07090833,0.07090833 0 0 1 0.07064,-0.07064 h 0.567266 a 0.07090833,0.07090833 0 0 1 0.07091,0.07064 v 0.550862 h 0.428625 v -0.550862 a 0.07090833,0.07090833 0 0 1 0.07091,-0.07064 h 0.567796 a 0.07090833,0.07090833 0 0 1 0.07064,0.07064 v 0.855133 a 0.06905625,0.06905625 0 0 1 -0.01693,0.04551 l -0.334433,0.394494 0.187325,3.553619 h 0.502708 V 70.16248 a 0.07064375,0.07064375 0 0 1 0.07064,-0.07064 h 0.64426 a 0.07090833,0.07090833 0 0 1 0.07091,0.07064 l -0.0058,1.081352 a 0.07117292,0.07117292 0 0 1 -0.0217,0.05054 l -0.755121,0.729721 0.314061,5.973497 z"
         fill="#006cb5"
         style="stroke-width:0.264583" /><path
         id="Path_761"
         data-name="Path 761"
         d="M 38.386853,74.455605 V 73.96348 h -0.508265 v 0.492125 z m 0.649552,0 V 73.96348 h -0.508264 v 0.492125 z m 0.649817,0 V 73.96348 h -0.508265 v 0.492125 z m 0.141552,-0.492125 v 0.492125 h 0.508264 V 73.96348 Z m -0.141552,-0.611187 a 0.07090833,0.07090833 0 0 1 0.141552,0 v 0.468312 h 0.578908 a 0.07090833,0.07090833 0 0 1 0.07064,0.07091 v 0.564091 h 0.211667 a 0.07090833,0.07090833 0 0 1 0,0.141553 h -0.211667 v 0.479689 a 0.070644,0.070644 0 0 1 -0.141288,0 V 74.597159 H 39.82777 v 0.517789 a 0.07090833,0.07090833 0 0 1 -0.141552,0 v -0.517789 h -0.508265 v 0.49821 a 0.07090833,0.07090833 0 1 1 -0.141552,0 v -0.49821 h -0.508264 v 0.517789 a 0.070644,0.070644 0 1 1 -0.141288,0 v -0.517789 h -0.508265 v 0.479689 a 0.07090833,0.07090833 0 0 1 -0.141552,0 v -0.47969 H 37.52537 a 0.07090833,0.07090833 0 0 1 0,-0.141553 h 0.211666 v -0.562768 a 0.07090833,0.07090833 0 0 1 0.07064,-0.07091 h 0.579173 v -0.469635 a 0.070644,0.070644 0 1 1 0.141288,0 v 0.468312 h 0.508264 v -0.604572 a 0.07090833,0.07090833 0 0 1 0.141552,0 v 0.604572 h 0.509323 z m -3.965575,-0.04577 -0.09869,0.03916 v 5.454121 l 0.09869,0.01085 z m 1.350698,2.38469 v -0.310886 h -0.460111 a 0.07090833,0.07090833 0 0 1 -0.05689,-0.02858 l -0.152136,-0.176741 -0.06747,0.03572 0.03228,0.07594 a 0.07117292,0.07117292 0 0 1 -0.01984,0.08202 l -0.202671,0.167216 0.202407,0.166952 a 0.07090833,0.07090833 0 0 1 0.02011,0.08202 l -0.03228,0.0762 0.06747,0.03545 0.155311,-0.180446 a 0.07037917,0.07037917 0 0 1 0.05292,-0.02461 z m 0,1.793345 V 77.17367 h -0.460111 a 0.07090833,0.07090833 0 0 1 -0.05689,-0.02858 l -0.152136,-0.176742 -0.06747,0.03572 0.03228,0.07594 a 0.07090833,0.07090833 0 0 1 -0.02328,0.08467 l -0.199232,0.164571 0.202407,0.166952 a 0.07064375,0.07064375 0 0 1 0.02011,0.08202 l -0.03228,0.0762 0.06747,0.03545 0.155311,-0.180446 a 0.07037917,0.07037917 0 0 1 0.05292,-0.02461 z m 0,1.109663 V 77.62611 h -0.428096 l -0.169333,0.19685 a 0.07090833,0.07090833 0 0 1 -0.08784,0.01799 l -0.172508,-0.09102 a 0.07037917,0.07037917 0 0 1 -0.03413,-0.09102 l 0.03704,-0.08731 -0.227013,-0.187589 a 0.0746125,0.0746125 0 0 1 -0.01032,-0.01005 0.07064375,0.07064375 0 0 1 0.0098,-0.09922 l 0.227542,-0.187854 -0.03704,-0.08731 a 0.07064375,0.07064375 0 0 1 0.03202,-0.09022 l 0.174625,-0.09207 a 0.07037917,0.07037917 0 0 1 0.08652,0.01667 l 0.170656,0.198173 h 0.428096 v -1.200679 h -0.428096 l -0.169333,0.19685 a 0.07090833,0.07090833 0 0 1 -0.08784,0.01799 l -0.172508,-0.09102 a 0.07064375,0.07064375 0 0 1 -0.03413,-0.09128 l 0.03704,-0.08731 -0.223838,-0.185208 a 0.10212917,0.10212917 0 0 1 -0.01349,-0.0127 0.07090833,0.07090833 0 0 1 0.0095,-0.09948 l 0.227806,-0.188118 -0.03704,-0.08705 a 0.07064375,0.07064375 0 0 1 0.03202,-0.09022 l 0.174625,-0.09207 a 0.07037917,0.07037917 0 0 1 0.08652,0.01667 l 0.170656,0.198172 h 0.428096 v -0.636852 a 1.5120937,1.5120937 0 0 0 -0.458523,-0.85381 1.6173979,1.6173979 0 0 0 -0.750623,-0.457994 v 5.51524 z m 5.422635,0.216429 0.09869,-0.01085 v -5.455444 l -0.09869,-0.03916 z m -1.351492,-1.637506 v 0.310885 h 0.460375 a 0.07249583,0.07249583 0 0 1 0.05292,0.02487 l 0.155046,0.180446 0.06747,-0.03545 -0.03228,-0.0762 a 0.07064375,0.07064375 0 0 1 0.02011,-0.08202 l 0.202406,-0.166952 -0.199231,-0.164571 a 0.07090833,0.07090833 0 0 1 -0.02328,-0.08467 l 0.03228,-0.07594 -0.06747,-0.03572 -0.151871,0.176742 a 0.07117292,0.07117292 0 0 1 -0.05689,0.02858 z m 0,-1.793346 v 0.310885 h 0.460375 a 0.07249583,0.07249583 0 0 1 0.05292,0.02487 l 0.155046,0.180446 0.06747,-0.03545 -0.03228,-0.07594 a 0.07117292,0.07117292 0 0 1 0.02011,-0.08229 L 42.06853,75.53537 41.866124,75.368153 a 0.07064375,0.07064375 0 0 1 -0.02011,-0.08202 l 0.03228,-0.07594 -0.06747,-0.03572 -0.151871,0.176742 a 0.07117292,0.07117292 0 0 1 -0.05689,0.02858 z m 0,-0.778404 v 0.636852 h 0.428096 L 41.74124,75.04007 a 0.07037917,0.07037917 0 0 1 0.08652,-0.01667 l 0.174625,0.09207 a 0.07064375,0.07064375 0 0 1 0.03202,0.09022 l -0.03704,0.08705 0.227806,0.188119 a 0.07064375,0.07064375 0 0 1 0.0095,0.09948 0.06693958,0.06693958 0 0 1 -0.01349,0.01244 l -0.223838,0.185208 0.03704,0.08731 a 0.07064375,0.07064375 0 0 1 -0.03387,0.09128 l -0.172773,0.09102 a 0.07090833,0.07090833 0 0 1 -0.08784,-0.01799 l -0.169334,-0.19685 H 41.14247 v 1.199356 h 0.428096 l 0.170656,-0.198173 a 0.07037917,0.07037917 0 0 1 0.08652,-0.01667 l 0.174625,0.09207 a 0.07064375,0.07064375 0 0 1 0.03202,0.09022 l -0.03704,0.08731 0.227542,0.187854 a 0.07037917,0.07037917 0 0 1 0.0098,0.09922 0.07381875,0.07381875 0 0 1 -0.01032,0.01005 l -0.227013,0.187589 0.03704,0.08731 a 0.07037917,0.07037917 0 0 1 -0.03387,0.09102 l -0.172773,0.09102 a 0.07090833,0.07090833 0 0 1 -0.08784,-0.01799 l -0.169334,-0.19685 h -0.428096 v 0.968111 l 1.209411,0.211667 v -5.516298 a 1.6168687,1.6168687 0 0 0 -0.750888,0.457993 1.5136812,1.5136812 0 0 0 -0.458523,0.853811 z m -8.537839,-10.764573 -0.345546,-0.876565 -0.343958,0.873125 a 0.07037917,0.07037917 0 0 1 -0.07699,0.0471 l -0.935037,-0.140493 0.587904,0.735277 a 0.07037917,0.07037917 0 0 1 0,0.0889 l -0.587904,0.736864 0.934772,-0.139964 a 0.07117292,0.07117292 0 0 1 0.07594,0.04418 l 0.34581,0.876829 0.343959,-0.873125 a 0.07117292,0.07117292 0 0 1 0.07726,-0.0471 l 0.934773,0.139965 -0.587904,-0.735277 a 0.07037917,0.07037917 0 0 1 0,-0.0889 l 0.588433,-0.737658 -0.934773,0.139964 a 0.07064375,0.07064375 0 0 1 -0.0762,-0.04313 z"
         fill="#ffed00"
         style="stroke-width:0.264583" /><path
         id="Path_762"
         data-name="Path 762"
         d="m 47.086353,65.062897 a 1.6211021,1.6211021 0 0 0 0,-1.310746 1.3438187,1.3438187 0 0 0 -0.505883,-0.57785 1.4351,1.4351 0 0 0 -0.770202,-0.214841 1.8314458,1.8314458 0 0 0 -0.613569,0.11086 1.8864791,1.8864791 0 0 1 0.978958,0.593725 1.419225,1.419225 0 0 1 0,1.486958 1.8864791,1.8864791 0 0 1 -0.978958,0.593461 1.825625,1.825625 0 0 0 0.613569,0.111125 1.4374812,1.4374812 0 0 0 0.770202,-0.214842 1.3472583,1.3472583 0 0 0 0.505883,-0.57785 m -7.979304,7.824788 h 0.297392 l 0.18997,-0.926042 h -0.974195 l 0.189706,0.926042 z m -2.631017,-6.204744 v -0.714375 h -0.426773 v 0.550862 a 0.07064375,0.07064375 0 0 1 -0.07064,0.07064 h -0.567003 a 0.07090833,0.07090833 0 0 1 -0.07091,-0.07064 v -0.550862 h -0.42545 v 0.550862 a 0.07090833,0.07090833 0 0 1 -0.07091,0.07064 H 34.27708 a 0.07090833,0.07090833 0 0 1 -0.07064,-0.07064 v -0.550862 h -0.425714 v 0.714375 z m -0.314854,0.41566 0.232833,-0.274108 H 33.86142 l 0.23151,0.274108 z m -1.77509,0.141288 h -0.258762 l -0.03175,0.608542 h 0.291042 z m 1.34038,0 h -1.198563 v 0.608542 h 1.198827 z m 0.432593,0.608542 -0.03228,-0.608542 H 35.86802 v 0.608542 z m -1.101989,1.636977 h -1.04775 l -0.03201,0.608541 h 1.079765 z m 1.221846,0.608541 -0.03201,-0.608541 h -1.048279 v 0.608541 z m 4.832879,-5.154348 0.0042,-0.0042 -0.0034,-1.037167 h -0.451643 v 0.608542 a 0.07090833,0.07090833 0 0 1 -0.07091,0.07091 h -0.592931 a 0.07090833,0.07090833 0 0 1 -0.07064,-0.07091 v -0.608542 h -0.449791 v 0.608542 a 0.07090833,0.07090833 0 0 1 -0.07091,0.07091 h -0.592931 a 0.07090833,0.07090833 0 0 1 -0.07064,-0.07091 v -0.608542 h -0.451379 v 0.608542 a 0.07090833,0.07090833 0 0 1 -0.07064,0.07064 l -0.592932,-0.0013 a 0.07090833,0.07090833 0 0 1 -0.07064,-0.07064 v -0.606425 h -0.451909 l -0.0034,1.037167 0.0042,0.0042 z m -0.502709,0.492919 a 0.07699375,0.07699375 0 0 1 0.01032,-0.0127 l 0.347663,-0.338667 h -3.717396 l 0.343958,0.335757 a 0.0762,0.0762 0 0 1 0.01349,0.01561 z m -2.432579,0.141552 h -0.565943 l -0.06403,0.790575 h 0.629973 z m 1.721909,0 h -1.580357 v 0.790575 h 1.580357 z m 0.771525,0.790575 -0.06377,-0.790575 H 40.03997 v 0.790575 z m -1.63248,2.006071 h -1.653116 l -0.06376,0.79084 h 1.716881 z m 1.858698,0.79084 -0.06403,-0.79084 h -1.653116 v 0.79084 z m -2.719652,0.141552 h -0.867568 l -0.06376,0.790839 h 0.931333 z m 1.721909,0 h -1.580357 v 0.790839 h 1.580357 z m 1.07315,0.790839 -0.06403,-0.790839 H 40.03997 v 0.790839 z m 3.466041,-3.410743 v -0.714375 h -0.426773 v 0.550862 a 0.07090833,0.07090833 0 0 1 -0.07064,0.07064 h -0.567267 a 0.07090833,0.07090833 0 0 1 -0.07064,-0.07064 v -0.550862 h -0.425714 v 0.550862 a 0.07090833,0.07090833 0 0 1 -0.07091,0.07064 h -0.567002 a 0.07064375,0.07064375 0 0 1 -0.07064,-0.07064 v -0.550862 h -0.427566 v 0.714375 z m -0.314589,0.41566 0.232568,-0.274108 h -2.532327 l 0.231511,0.274108 z m -1.775355,0.141287 h -0.258497 l -0.03202,0.608542 h 0.291042 z m 1.34038,0 h -1.198827 v 0.608542 h 1.198827 z m 0.432593,0.608542 -0.03201,-0.608542 h -0.259027 v 0.608542 z m -1.102783,1.638829 h -1.046956 l -0.03175,0.608542 h 1.078706 z m 1.221317,0.608542 -0.03202,-0.608542 h -1.04775 v 0.608542 z m -8.751094,0.141552 H 34.76603 v 0.511969 h 0.721783 z m 3.120496,0 h -0.723106 v 0.511969 h 0.721783 z m 1.721908,0 h -0.722577 v 0.511969 h 0.721783 z m 3.120496,0 h -0.721783 v 0.511969 h 0.721783 z m 2.040731,1.043252 0.06562,-0.06323 0.005,-0.978959 h -0.502708 v 0.582084 a 0.07064375,0.07064375 0 0 1 -0.07064,0.07064 h -0.640556 a 0.07090833,0.07090833 0 0 1 -0.07064,-0.0672 l -0.03096,-0.586316 h -0.65405 v 0.582083 a 0.07090833,0.07090833 0 0 1 -0.07091,0.07064 H 42.65853 a 0.07090833,0.07090833 0 0 1 -0.07064,-0.07064 v -0.582083 h -0.655902 l -0.03069,0.582083 a 0.07090833,0.07090833 0 0 1 -0.07091,0.07064 h -0.728927 a 0.07064375,0.07064375 0 0 1 -0.07038,-0.06509 l -0.04762,-0.588433 h -0.511175 v 0.582083 a 0.07090833,0.07090833 0 0 1 -0.07091,0.07064 h -0.864922 a 0.07090833,0.07090833 0 0 1 -0.07064,-0.07064 v -0.582083 h -0.717021 v 0.582083 a 0.07090833,0.07090833 0 0 1 -0.07091,0.07064 h -0.863336 a 0.07090833,0.07090833 0 0 1 -0.07091,-0.07064 v -0.582083 h -0.511175 l -0.04736,0.585523 a 0.07064375,0.07064375 0 0 1 -0.07064,0.068 h -0.72734 a 0.07064375,0.07064375 0 0 1 -0.07038,-0.06721 l -0.03122,-0.586316 h -0.657225 v 0.582083 a 0.07090833,0.07090833 0 0 1 -0.07091,0.07064 h -0.863336 a 0.07064375,0.07064375 0 0 1 -0.07064,-0.07064 V 70.237086 H 33.96989 l -0.03069,0.582083 a 0.07090833,0.07090833 0 0 1 -0.07064,0.07064 h -0.642937 a 0.07090833,0.07090833 0 0 1 -0.07064,-0.07064 l -0.0021,-0.582083 h -0.499534 l 0.0053,0.978958 0.06562,0.06324 z m -10.434637,5.905235 h -1.891771 l -0.03836,0.729457 h 1.930136 z M 34.181566,76.315097 H 33.21028 l -0.03836,0.729456 h 1.008856 z m 0.875506,-0.871008 h -1.799167 l -0.03836,0.729456 h 1.837531 z M 34.181566,74.572816 H 33.30262 l -0.0381,0.729721 h 0.917046 z m 0.875506,-0.870744 h -1.709209 l -0.03836,0.729456 h 1.747573 z M 34.181566,72.830799 H 33.39443 l -0.03836,0.729721 h 0.8255 z m 0.875506,-0.871008 h -1.629304 a 0.07011458,0.07011458 0 0 1 0.01032,0.04048 l -0.03625,0.68924 h 1.655234 z m 8.101806,0.729721 h 1.655498 l -0.03625,-0.68924 a 0.06852708,0.06852708 0 0 1 0.01032,-0.04048 h -1.629569 z m 0.875506,0.871008 h 0.825765 l -0.03836,-0.729721 h -0.7874 z m -0.875506,0.871008 h 1.74625 l -0.03836,-0.729456 h -1.708679 z m 0.875506,0.871009 h 0.917311 l -0.03836,-0.729721 h -0.878946 z m -0.875506,0.871008 h 1.83859 l -0.03836,-0.729456 h -1.799167 z m 0.875506,0.871008 h 1.008856 l -0.03836,-0.729456 h -0.970492 z m -0.875506,0.871009 h 1.930135 l -0.03836,-0.729457 h -1.891771 z m -6.342327,-5.955771 h -1.617927 v 0.729721 h 1.617927 z m 4.583112,0.729721 h 1.617663 v -0.729721 h -1.617663 z m 1.335352,1.742016 h 0.282311 v -0.729456 h -0.282311 z m 0,0.871009 h 1.157817 v -0.729721 h -1.157817 z m 0,0.871008 h 0.282311 v -0.729456 h -0.282311 z m 0,0.871008 h 1.157817 v -0.729456 h -1.157817 z m 0,0.871009 h 0.282311 v -0.729457 h -0.282311 z m -0.02646,1.001183 c 0.306123,0.07937 0.5969,0.167217 0.873125,0.259556 a 15.802769,15.802769 0 0 1 2.61329,1.164167 L 45.105151,78.057114 H 42.73422 v 0.805391 a 0.07090833,0.07090833 0 0 1 -0.02567,0.05424 z m -7.228152,-0.859631 h -2.371196 l -1.089818,2.283354 a 15.825787,15.825787 0 0 1 2.613289,-1.164167 c 0.276225,-0.09234 0.567267,-0.179652 0.873125,-0.259556 a 0.07064375,0.07064375 0 0 1 -0.02646,-0.05424 z m 0,-0.871009 H 35.19783 v 0.729457 h 0.282575 z m 0,-0.871008 h -1.158081 v 0.729456 h 1.158081 z m 0,-0.871008 H 35.19783 v 0.729456 h 0.282575 z m 0,-0.871273 h -1.158081 v 0.729456 h 1.158081 z m 0,-0.870744 H 35.19783 v 0.729456 h 0.282575 z m 4.28625,-1.883833 h 5.163873 l 0.41275,-0.398992 H 32.870555 l 0.413015,0.398992 z m 4.06109,-2.474384 h 0.370416 l -0.03201,-0.607218 h -0.338138 z m -1.481667,-0.607218 h -0.337344 l -0.03175,0.607218 h 0.369094 z m 1.02579,0 a 0.29474583,0.29474583 0 0 1 -0.573617,0 H 42.48763 v 0.607218 h 1.198827 v -0.607218 z m -0.3556,-0.748506 h -0.968111 l -0.03201,0.607218 h 0.783431 a 0.295275,0.295275 0 0 1 0.216694,-0.213783 z m 0.141552,0.394493 a 0.295275,0.295275 0 0 1 0.211666,0.211667 h 0.789252 l -0.03201,-0.607219 h -0.96864 z M 40.038645,68.228372 H 40.81943 L 40.75567,67.437533 H 40.038647 Z M 38.175186,67.437533 H 37.45843 l -0.06403,0.790839 h 0.780785 z m 1.211527,0 a 0.29501041,0.29501041 0 0 1 -0.563033,0 h -0.506942 v 0.790839 h 1.580357 v -0.790839 z m -0.350572,-0.932392 h -1.502305 l -0.06403,0.79084 h 1.344348 a 0.295275,0.295275 0 0 1 0.220927,-0.233098 z m 0.141552,0.558535 a 0.295275,0.295275 0 0 1 0.217487,0.232305 h 1.349375 l -0.06403,-0.79084 h -1.502304 z m -0.624946,5.271559 -0.07699,-0.375444 H 36.95678 v 0.729721 h 0.777875 a 2.3386521,2.3386521 0 0 1 0.818356,-0.354277 z m 1.925108,0.354277 h 0.779198 V 71.959791 H 39.73808 l -0.07699,0.375708 a 2.3460604,2.3460604 0 0 1 0.817034,0.354013 z m 1.804458,0.47281 c 0.03995,-0.01111 0.08096,-0.0209 0.122502,-0.02858 a 0.06985,0.06985 0 0 1 0.04392,0.0026 l 0.238125,0.09393 a 0.07064375,0.07064375 0 0 1 0.04762,0.06667 v 0.264583 h 1.157817 v -0.72972 h -1.60946 z m -1.028435,0.398198 h 0.338402 a 1.7774708,1.7774708 0 0 1 0.54954,-0.350573 v -0.379148 h -1.475582 c 0.01667,0.01402 0.03307,0.02831 0.04921,0.0426 a 2.4341666,2.4341666 0 0 1 0.538692,0.687123 z m 0.110596,0.243417 c 0.02646,-0.0344 0.05609,-0.06853 0.08652,-0.101865 h -0.128588 c 0.01535,0.03413 0.02937,0.068 0.04233,0.101865 z m -4.414838,0.13626 a 1.3464646,1.3464646 0 0 1 0.262996,0.661458 v 3.984096 c 0.03942,-0.0053 0.07937,-0.01032 0.118534,-0.01508 v -4.184385 a 0.81332916,0.81332916 0 0 1 0.09446,-0.313267 2.0275021,2.0275021 0 0 1 1.331648,-1.048279 h 0.695589 a 2.0296187,2.0296187 0 0 1 1.331913,1.048279 0.81332916,0.81332916 0 0 1 0.09446,0.313267 v 4.18412 c 0.04075,0.0048 0.08149,0.01006 0.121973,0.01535 v -3.98436 a 1.3472583,1.3472583 0 0 1 0.261937,-0.659871 2.2412854,2.2412854 0 0 0 -0.642937,-0.96229 2.2111229,2.2111229 0 0 0 -0.98769,-0.505089 l -0.113506,0.555625 H 38.695101 L 38.58133,72.474146 a 2.2108583,2.2108583 0 0 0 -0.989013,0.505354 2.2418146,2.2418146 0 0 0 -0.642408,0.960702 z m -0.0598,-0.238125 H 36.7631 q 0.04445,0.04974 0.08546,0.100542 c 0.01296,-0.03334 0.02672,-0.06694 0.04154,-0.100542 z M 35.93152,72.830799 h -1.609461 v 0.729721 h 1.158346 v -0.264583 a 0.07037917,0.07037917 0 0 1 0.04736,-0.06667 l 0.238125,-0.09393 a 0.07064375,0.07064375 0 0 1 0.04418,-0.0026 c 0.04154,0.0077 0.08228,0.01746 0.122237,0.02858 z m 0.691356,0.729721 h 0.335492 a 2.4399875,2.4399875 0 0 1 0.540014,-0.687917 c 0.01614,-0.01429 0.03281,-0.02858 0.04948,-0.0426 h -1.474787 v 0.379148 a 1.7787937,1.7787937 0 0 1 0.550069,0.351367 z m -0.755121,-4.216665 h 0.370417 l -0.03228,-0.607218 h -0.338138 z m -1.481667,-0.607218 h -0.337343 l -0.03201,0.607218 h 0.370417 z m 1.026319,0 a 0.29501041,0.29501041 0 0 1 -0.573881,0 h -0.310621 v 0.607218 h 1.198827 v -0.607218 z m -0.355335,-0.748506 h -0.968375 l -0.03175,0.607218 h 0.783696 a 0.29501041,0.29501041 0 0 1 0.216429,-0.213783 z m 0.141552,0.394493 a 0.29501041,0.29501041 0 0 1 0.213254,0.211667 h 0.787665 l -0.03228,-0.607219 h -0.968639 z"
         fill="#fefefe"
         fill-rule="evenodd"
         style="stroke-width:0.264583" /></g></g></svg>
